<?xml version="1.0" encoding="utf-8"?>
<!-- Generator: Adobe Illustrator 22.0.1, SVG Export Plug-In . SVG Version: 6.00 Build 0)  -->
<svg version="1.1" id="Layer_1" xmlns="http://www.w3.org/2000/svg" xmlns:xlink="http://www.w3.org/1999/xlink" x="0px" y="0px"
	 viewBox="0 0 111 42.9" style="enable-background:new 0 0 111 42.9;" xml:space="preserve">
<style type="text/css">
	.st0{fill:none;}
	.st1{fill:#101D51;}
	.st2{fill:#F8A246;}
</style>
<g>
	<path class="st0" d="M21.5,21.3c-2.3,0-4.5,1.8-4.5,4.6c0,2.8,2.2,4.6,4.5,4.6c2.3,0,4.4-1.8,4.4-4.6
		C25.9,23.1,23.7,21.3,21.5,21.3z"/>
	<path class="st0" d="M85,38.1L85,38.1c-0.1,0.3-0.1,0.5-0.2,0.7l-0.5,1.4h1.3l-0.5-1.4C85.1,38.6,85,38.4,85,38.1z"/>
	<path class="st0" d="M7.2,23L7.2,23c-0.2,0.5-0.4,1.1-0.5,1.5l-1.1,3h3.2l-1.1-3C7.5,24.1,7.4,23.5,7.2,23z"/>
	<path class="st0" d="M50.5,23L50.5,23c-0.2,0.5-0.4,1.1-0.5,1.5l-1.1,3h3.2l-1.1-3C50.8,24.1,50.7,23.5,50.5,23z"/>
	<path class="st0" d="M68.5,37.4c-1,0-1.9,0.8-1.9,2.1c0,1.3,0.9,2.1,1.9,2.1c1,0,1.9-0.8,1.9-2.1C70.4,38.2,69.5,37.4,68.5,37.4z"
		/>
	<path class="st0" d="M51,38.1L51,38.1c-0.1,0.3-0.1,0.5-0.2,0.7l-0.5,1.4h1.3l-0.5-1.4C51.1,38.6,51,38.4,51,38.1z"/>
	<path class="st0" d="M100.5,37.4c-1,0-1.9,0.8-1.9,2.1c0,1.3,0.9,2.1,1.9,2.1c1,0,1.9-0.8,1.9-2.1
		C102.4,38.2,101.5,37.4,100.5,37.4z"/>
	<path class="st0" d="M37.5,12.4c2.3,0,4.5-1.8,4.5-4.6c0-2.8-2.2-4.6-4.5-4.6c-2.3,0-4.4,1.8-4.4,4.6
		C33.1,10.6,35.2,12.4,37.5,12.4z"/>
	<path class="st0" d="M65.3,23c0-1.1-1-1.7-1.9-1.7h-1.6v3.3h1.6C64.4,24.6,65.3,24.1,65.3,23z"/>
	<path class="st0" d="M20.7,12.4c2.3,0,4.5-1.8,4.5-4.6c0-2.8-2.2-4.6-4.5-4.6c-2.3,0-4.4,1.8-4.4,4.6
		C16.2,10.6,18.4,12.4,20.7,12.4z"/>
	<path class="st1" d="M61.8,27.5h1.3l4.1,5.9h4.1l-4.9-6.6c1.3-0.6,2.3-2,2.3-3.7c0-2.8-2.3-4.5-4.9-4.5h-5.7v14.9h3.6V27.5z
		 M61.8,21.3h1.6c1,0,1.9,0.5,1.9,1.7c0,1.2-1,1.7-1.9,1.7h-1.6V21.3z"/>
	<path class="st1" d="M43.9,18.5h-3.6v9.5c0,1.5-1.2,2.6-3,2.6s-2.9-1-2.9-2.6v-9.5h-3.7v9.8c0,3.3,3,5.4,6.6,5.4
		c3.7,0,6.6-2.1,6.6-5.4V18.5z"/>
	<path class="st1" d="M51.9,18.3h-2.6l-6,15h3.5l1.2-3.1h5l1.2,3.1h3.7L51.9,18.3z M48.9,27.5l1.1-3c0.2-0.4,0.4-1,0.5-1.5h0
		c0.1,0.5,0.3,1.1,0.5,1.5l1.1,3H48.9z"/>
	<path class="st1" d="M6,18.3l-6,15h3.5l1.2-3.1h5l1.2,3.1h3.7l-6-15H6z M5.6,27.5l1.1-3c0.2-0.4,0.4-1,0.5-1.5h0
		c0.1,0.5,0.3,1.1,0.5,1.5l1.1,3H5.6z"/>
	<path class="st1" d="M26.7,33.6c-1-0.5-1.4-0.7-1.8-0.8v0c2.5-0.8,4.8-3.5,4.8-6.9c0-4.8-4-7.8-8.2-7.8c-4.2,0-8.2,3-8.2,7.8
		c0,4.4,3.5,7.3,7.2,7.7c0.9,0.4,2.2,1.2,3.6,2c1.5,0.8,2.7,1.2,4.2,1.2c0.2,0,0.4,0,0.6,0l1.9-2.8c-0.5,0.2-1,0.3-1.5,0.3
		C28.5,34.2,27.6,34,26.7,33.6z M21.5,30.5c-2.3,0-4.5-1.8-4.5-4.6c0-2.8,2.2-4.6,4.5-4.6c2.3,0,4.4,1.8,4.4,4.6
		C25.9,28.6,23.7,30.5,21.5,30.5z"/>
	<rect x="72.2" y="18.5" class="st1" width="3.7" height="14.9"/>
	<path class="st1" d="M106.2,25.1c0,1,0.1,1.9,0.1,2.8l0.5,5.5h3.6l-1.4-14.9h-3l-3.3,6.2c-0.5,1-1.1,2.2-1.5,3.2h0
		c-0.4-1-1.1-2.3-1.5-3.2l-3.3-6.2h-3l-1.3,14.9h3.6l0.5-5.5c0.1-0.8,0.1-1.7,0.1-2.7h0c0.4,1,0.8,1.9,1.3,2.8l2.9,5.5h1.5l2.9-5.5
		C105.3,27.1,105.8,26.1,106.2,25.1L106.2,25.1z"/>
	<path class="st1" d="M90.9,28.2v-9.8h-3.6v9.5c0,1.5-1.2,2.6-3,2.6c-1.8,0-2.9-1-2.9-2.6v-9.5h-3.7v9.8c0,3.3,3,5.4,6.6,5.4
		C87.9,33.7,90.9,31.6,90.9,28.2z"/>
	<path class="st2" d="M20.7,15.6c4.2,0,8.2-3,8.2-7.8c0-4.8-4-7.8-8.2-7.8c-4.2,0-8.2,3-8.2,7.8C12.5,12.6,16.5,15.6,20.7,15.6z
		 M20.7,3.2c2.3,0,4.5,1.8,4.5,4.6c0,2.8-2.2,4.6-4.5,4.6c-2.3,0-4.4-1.8-4.4-4.6C16.2,5,18.4,3.2,20.7,3.2z"/>
	<path class="st2" d="M37.5,15.6c4.2,0,8.2-3,8.2-7.8c0-4.8-4-7.8-8.2-7.8c-4.2,0-8.2,3-8.2,7.8C29.3,12.6,33.3,15.6,37.5,15.6z
		 M37.5,3.2C39.8,3.2,42,5,42,7.8c0,2.8-2.2,4.6-4.5,4.6c-2.3,0-4.4-1.8-4.4-4.6C33.1,5,35.2,3.2,37.5,3.2z"/>
	<path class="st2" d="M12.8,12.1H6.4l0,0c0.6-1,1.5-2.4,2.1-3.6l4.1-7.3V0.3H1.8v3.1h5.8l0,0c-0.7,1-1.5,2.5-2.1,3.6l-4.1,7.3v0.9
		h11.5V12.1z"/>
	<path class="st1" d="M50.5,35.9l-2.5,7h1.4l0.5-1.4H52l0.5,1.4H54l-2.5-7H50.5z M50.3,40.2l0.5-1.4c0.1-0.2,0.1-0.5,0.2-0.7h0
		c0.1,0.3,0.1,0.5,0.2,0.7l0.5,1.4H50.3z"/>
	<path class="st1" d="M58,38.6c-0.9-0.3-1.1-0.5-1.1-0.8c0-0.3,0.3-0.6,0.9-0.6c0.6,0,1.1,0.2,1.5,0.4l0.1-1.4
		c-0.3-0.2-0.9-0.4-1.8-0.4c-1.6,0-2.5,0.9-2.5,2c0,0.9,0.7,1.7,1.9,2.1c0.9,0.3,1.1,0.5,1.1,0.9c0,0.4-0.4,0.6-1,0.6
		c-0.8,0-1.6-0.3-2.2-0.8l0.2,1.6c0.5,0.4,1.3,0.6,2.2,0.6c1.8,0,2.7-0.9,2.7-2.2C60,39.7,59.2,39,58,38.6z"/>
	<path class="st1" d="M63,38.6c-0.9-0.3-1.1-0.5-1.1-0.8c0-0.3,0.3-0.6,0.9-0.6c0.6,0,1.1,0.2,1.5,0.4l0.1-1.4
		c-0.3-0.2-0.9-0.4-1.8-0.4c-1.6,0-2.5,0.9-2.5,2c0,0.9,0.7,1.7,1.9,2.1c0.9,0.3,1.1,0.5,1.1,0.9c0,0.4-0.4,0.6-1,0.6
		c-0.8,0-1.5-0.3-2.2-0.8l0.2,1.6c0.5,0.4,1.3,0.6,2.2,0.6c1.8,0,2.7-0.9,2.7-2.2C65,39.7,64.2,39,63,38.6z"/>
	<path class="st1" d="M68.5,35.9c-1.8,0-3.5,1.4-3.5,3.5c0,2.2,1.7,3.5,3.5,3.5c1.8,0,3.5-1.4,3.5-3.5C72,37.3,70.3,35.9,68.5,35.9z
		 M68.5,41.5c-1,0-1.9-0.8-1.9-2.1c0-1.2,0.9-2.1,1.9-2.1c1,0,1.9,0.8,1.9,2.1C70.4,40.7,69.5,41.5,68.5,41.5z"/>
	<path class="st1" d="M77.1,37.6c0.8,0,1.3,0.2,1.7,0.4l0.1-1.4c-0.4-0.2-1.1-0.4-2-0.4c-1.8,0-3.8,1.1-3.8,3.3c0,2.2,2,3.3,3.8,3.3
		c0.8,0,1.4-0.1,1.8-0.3l0.1-1.4c-0.4,0.2-1,0.4-1.7,0.4c-1.3,0-2.3-0.8-2.3-2C74.9,38.4,75.9,37.6,77.1,37.6z"/>
	<rect x="80" y="35.9" class="st1" width="2" height="7"/>
	<path class="st1" d="M84.5,35.9l-2.5,7h1.4l0.5-1.4H86l0.5,1.4H88l-2.5-7H84.5z M84.3,40.2l0.5-1.4c0.1-0.2,0.1-0.5,0.2-0.7h0
		c0.1,0.3,0.1,0.5,0.2,0.7l0.5,1.4H84.3z"/>
	<polygon class="st1" points="88,35.9 88,37.3 90.1,37.3 90.1,42.9 91.9,42.9 91.9,37.3 94,37.3 94,35.9 	"/>
	<polygon class="st1" points="94,37.3 94,42.9 96,42.9 96,35.9 94,35.9 	"/>
	<path class="st1" d="M100.5,35.9c-1.8,0-3.5,1.4-3.5,3.5c0,2.2,1.7,3.5,3.5,3.5c1.8,0,3.5-1.4,3.5-3.5
		C104,37.3,102.3,35.9,100.5,35.9z M100.5,41.5c-1,0-1.9-0.8-1.9-2.1c0-1.2,0.9-2.1,1.9-2.1c1,0,1.9,0.8,1.9,2.1
		C102.4,40.7,101.5,41.5,100.5,41.5z"/>
	<path class="st1" d="M109.4,35.9v2.6c0,0.4,0,0.9,0,1.3l0,0c-0.3-0.4-0.7-1-1-1.3l-2.2-2.6H105v6.9h1.6v-2.9c0-0.4,0-1,0-1.5l0,0
		c0.3,0.5,0.8,1,1.2,1.5l2.5,3h0.8v-7H109.4z"/>
</g>
</svg>
